<svg width="50" height="50" viewBox="0 0 50 50" fill="none" xmlns="http://www.w3.org/2000/svg">
<circle cx="25" cy="25" r="25" fill="#C4C4C4"/>
<mask id="mask0" mask-type="alpha" maskUnits="userSpaceOnUse" x="0" y="0" width="50" height="50">
<circle cx="25" cy="25" r="25" fill="#A1A1A1"/>
</mask>
<g mask="url(#mask0)">
<path d="M24.8503 32.9361C24.8943 32.9361 24.9384 32.9361 24.9913 32.9361C25.0089 32.9361 25.0266 32.9361 25.0442 32.9361C25.0706 32.9361 25.1059 32.9361 25.1323 32.9361C27.7151 32.892 29.8042 31.9841 31.3468 30.2476C34.7405 26.4219 34.1763 19.8637 34.1146 19.2379C33.8942 14.5396 31.6729 12.2918 29.8394 11.2429C28.4731 10.4584 26.8777 10.0353 25.0971 10H25.0354C25.0266 10 25.0089 10 25.0001 10H24.9472C23.9688 10 22.0472 10.1587 20.2049 11.2076C18.3538 12.2566 16.0972 14.5044 15.8768 19.2379C15.8151 19.8637 15.251 26.4219 18.6447 30.2476C20.1784 31.9841 22.2675 32.892 24.8503 32.9361ZM18.2304 19.4583C18.2304 19.4318 18.2392 19.4054 18.2392 19.3877C18.5301 13.0675 23.0168 12.3888 24.9384 12.3888H24.9737C24.9913 12.3888 25.0178 12.3888 25.0442 12.3888C27.4242 12.4417 31.4702 13.4113 31.7434 19.3877C31.7434 19.4142 31.7434 19.4406 31.7522 19.4583C31.7611 19.52 32.3781 25.514 29.575 28.6697C28.4643 29.9214 26.9835 30.5384 25.0354 30.5561C25.0178 30.5561 25.0089 30.5561 24.9913 30.5561C24.9737 30.5561 24.9649 30.5561 24.9472 30.5561C23.008 30.5384 21.5183 29.9214 20.4164 28.6697C17.6222 25.5316 18.2216 19.5112 18.2304 19.4583Z" fill="white"/>
<path d="M43.1031 43.8135C43.1031 43.8047 43.1031 43.7958 43.1031 43.787C43.1031 43.7165 43.0943 43.646 43.0943 43.5667C43.0414 41.8213 42.9269 37.7401 39.1012 36.4355C39.0748 36.4267 39.0395 36.4179 39.0131 36.4091C35.0376 35.3954 31.7321 33.1035 31.6968 33.0771C31.1591 32.698 30.4187 32.8303 30.0396 33.368C29.6606 33.9057 29.7928 34.6461 30.3305 35.0251C30.4804 35.1309 33.9887 37.5726 38.3784 38.7009C40.4323 39.4325 40.6615 41.6274 40.7232 43.6372C40.7232 43.7165 40.7232 43.787 40.732 43.8575C40.7408 44.6509 40.6879 45.8761 40.5469 46.5813C39.1189 47.3923 33.5215 50.1954 25.0064 50.1954C16.5266 50.1954 10.8939 47.3835 9.45712 46.5725C9.31609 45.8673 9.25438 44.6421 9.27201 43.8487C9.27201 43.7782 9.28083 43.7077 9.28083 43.6284C9.34253 41.6186 9.57172 39.4237 11.6256 38.6921C16.0153 37.5638 19.5236 35.1133 19.6735 35.0163C20.2112 34.6373 20.3434 33.8968 19.9643 33.3591C19.5853 32.8214 18.8449 32.6892 18.3072 33.0683C18.2719 33.0947 14.984 35.3865 10.9909 36.4002C10.9556 36.4091 10.9292 36.4179 10.9027 36.4267C7.07713 37.7401 6.96254 41.8213 6.90965 43.5578C6.90965 43.6372 6.90965 43.7077 6.90084 43.7782C6.90084 43.787 6.90084 43.7958 6.90084 43.8047C6.89202 44.263 6.88321 46.6166 7.35039 47.7978C7.43854 48.0269 7.5972 48.2209 7.80876 48.3531C8.0732 48.5294 14.411 52.5666 25.0152 52.5666C35.6194 52.5666 41.9572 48.5206 42.2217 48.3531C42.4244 48.2209 42.5919 48.0269 42.68 47.7978C43.1208 46.6254 43.112 44.2718 43.1031 43.8135Z" fill="white"/>
</g>
</svg>
