<svg width="25" height="25" viewBox="0 0 25 25" fill="none" xmlns="http://www.w3.org/2000/svg">
<path d="M24 19C24.5523 19 25 18.5523 25 18C25 17.4477 24.5523 17 24 17V19ZM1 17C0.447715 17 0 17.4477 0 18C0 18.5523 0.447715 19 1 19V17ZM4 9.05H3H4ZM20 9.05H21H20ZM15 23L15.7675 23.6411C16.0164 23.3431 16.0703 22.928 15.9058 22.5764C15.7414 22.2247 15.3882 22 15 22V23ZM10 23V22C9.61177 22 9.25863 22.2247 9.09416 22.5764C8.9297 22.928 8.98364 23.3431 9.23252 23.6411L10 23ZM24 17H1V19H24V17ZM1 19C2.3513 19 3.38435 18.2752 4.04051 17.3137C4.68396 16.3708 5 15.1661 5 14H3C3 14.8339 2.76873 15.6292 2.38853 16.1863C2.02103 16.7248 1.55408 17 1 17V19ZM5 14V9.05H3V14H5ZM5 9.05C5 5.22514 8.53504 2 12.5 2V0C7.57318 0 3 3.98307 3 9.05H5ZM12.5 2C16.3026 2 19 5.0608 19 9.05H21C21 4.14741 17.5892 0 12.5 0V2ZM19 9.05V14H21V9.05H19ZM19 14C19 15.3395 19.6891 16.5816 20.5839 17.4626C21.4767 18.3415 22.7153 19 24 19V17C23.3793 17 22.618 16.6585 21.987 16.0374C21.3582 15.4184 21 14.6605 21 14H19ZM14.2325 22.3589C13.9559 22.6901 13.3229 23 12.5 23V25C13.7379 25 15.01 24.5479 15.7675 23.6411L14.2325 22.3589ZM12.5 23C11.6771 23 11.0441 22.6901 10.7675 22.3589L9.23252 23.6411C9.99 24.5479 11.2621 25 12.5 25V23ZM10 24H15V22H10V24Z" fill="#36A9E1"/>
</svg>
