<svg width="47" height="50" viewBox="0 0 47 50" fill="none" xmlns="http://www.w3.org/2000/svg">
<path fill-rule="evenodd" clip-rule="evenodd" d="M12.5 18V1.5H32.5L45.5 14L46.5 46.5L43.5 49H14.5L11.5 46.5L11.8889 36H2V18H12.5Z" fill="white"/>
<path d="M46.7319 13.531L34.0249 0.294727C33.844 0.106445 33.5944 0 33.3338 0H14.3949C12.2754 0 10.551 1.72793 10.551 3.85176V17.3077H2.87585C1.29009 17.3077 0 18.6006 0 20.1898V34.618C0 36.2071 1.29009 37.5 2.87585 37.5H10.551V46.155C10.551 48.2751 12.2754 50 14.3949 50H43.1561C45.2756 50 47 48.2761 47 46.1571V14.1978C47 13.9491 46.9039 13.7102 46.7319 13.531ZM33.5715 2.5958L44.0028 13.4615H33.5715V2.5958ZM2.87585 35.577C2.34785 35.577 1.91843 35.1468 1.91843 34.618V20.1898C1.91843 19.661 2.34794 19.2308 2.87585 19.2308H28.7773C29.3053 19.2308 29.7347 19.661 29.7347 20.1898V34.618C29.7347 35.1468 29.3052 35.577 28.7773 35.577H2.87585ZM45.0816 46.1571C45.0816 47.2157 44.2178 48.077 43.156 48.077H14.3949C13.3332 48.077 12.4694 47.2148 12.4694 46.1551V37.5H28.7773C30.363 37.5 31.6531 36.2071 31.6531 34.618V20.1898C31.6531 18.6006 30.363 17.3077 28.7773 17.3077H12.4694V3.85176C12.4694 2.78818 13.3332 1.92305 14.3949 1.92305H31.653V14.423C31.653 14.9541 32.0825 15.3846 32.6122 15.3846H45.0816V46.1571Z" fill="#36A9E1"/>
<path d="M4.76172 32V23.4688H7.38672C8.13672 23.4688 8.80664 23.6387 9.39648 23.9785C9.99023 24.3145 10.4531 24.7949 10.7852 25.4199C11.1172 26.041 11.2832 26.748 11.2832 27.541V27.9336C11.2832 28.7266 11.1191 29.4316 10.791 30.0488C10.4668 30.666 10.0078 31.1445 9.41406 31.4844C8.82031 31.8242 8.15039 31.9961 7.4043 32H4.76172ZM6.51953 24.8926V30.5879H7.36914C8.05664 30.5879 8.58203 30.3633 8.94531 29.9141C9.30859 29.4648 9.49414 28.8223 9.50195 27.9863V27.5352C9.50195 26.668 9.32227 26.0117 8.96289 25.5664C8.60352 25.1172 8.07812 24.8926 7.38672 24.8926H6.51953Z" fill="#36A9E1"/>
<path d="M19.0742 27.9277C19.0742 28.7676 18.9258 29.5039 18.6289 30.1367C18.332 30.7695 17.9062 31.2578 17.3516 31.6016C16.8008 31.9453 16.168 32.1172 15.4531 32.1172C14.7461 32.1172 14.1152 31.9473 13.5605 31.6074C13.0059 31.2676 12.5762 30.7832 12.2715 30.1543C11.9668 29.5215 11.8125 28.7949 11.8086 27.9746V27.5527C11.8086 26.7129 11.959 25.9746 12.2598 25.3379C12.5645 24.6973 12.9922 24.207 13.543 23.8672C14.0977 23.5234 14.7305 23.3516 15.4414 23.3516C16.1523 23.3516 16.7832 23.5234 17.334 23.8672C17.8887 24.207 18.3164 24.6973 18.6172 25.3379C18.9219 25.9746 19.0742 26.7109 19.0742 27.5469V27.9277ZM17.293 27.541C17.293 26.6465 17.1328 25.9668 16.8125 25.502C16.4922 25.0371 16.0352 24.8047 15.4414 24.8047C14.8516 24.8047 14.3965 25.0352 14.0762 25.4961C13.7559 25.9531 13.5938 26.625 13.5898 27.5117V27.9277C13.5898 28.7988 13.75 29.4746 14.0703 29.9551C14.3906 30.4355 14.8516 30.6758 15.4531 30.6758C16.043 30.6758 16.4961 30.4453 16.8125 29.9844C17.1289 29.5195 17.2891 28.8438 17.293 27.957V27.541Z" fill="#36A9E1"/>
<path d="M26.5488 29.1582C26.4824 30.0762 26.1426 30.7988 25.5293 31.3262C24.9199 31.8535 24.1152 32.1172 23.1152 32.1172C22.0215 32.1172 21.1602 31.75 20.5312 31.0156C19.9062 30.2773 19.5938 29.2656 19.5938 27.9805V27.459C19.5938 26.6387 19.7383 25.916 20.0273 25.291C20.3164 24.666 20.7285 24.1875 21.2637 23.8555C21.8027 23.5195 22.4277 23.3516 23.1387 23.3516C24.123 23.3516 24.916 23.6152 25.5176 24.1426C26.1191 24.6699 26.4668 25.4102 26.5605 26.3633H24.8027C24.7598 25.8125 24.6055 25.4141 24.3398 25.168C24.0781 24.918 23.6777 24.793 23.1387 24.793C22.5527 24.793 22.1133 25.0039 21.8203 25.4258C21.5312 25.8438 21.3828 26.4941 21.375 27.377V28.0215C21.375 28.9434 21.5137 29.6172 21.791 30.043C22.0723 30.4688 22.5137 30.6816 23.1152 30.6816C23.6582 30.6816 24.0625 30.5586 24.3281 30.3125C24.5977 30.0625 24.752 29.6777 24.791 29.1582H26.5488Z" fill="#36A9E1"/>
</svg>
