<svg width="80" height="80" viewBox="0 0 80 80" fill="none" xmlns="http://www.w3.org/2000/svg">
<path d="M76.5444 17.2122L74.6035 16.6061C74.1182 16.4849 73.633 16.3637 73.0266 16.3637C70.843 16.3637 68.9021 17.8182 68.1742 19.8788L67.0826 23.1514V20.7272V20.6061C67.0826 20.2424 66.8399 19.8788 66.5973 19.6363L46.703 0.363666C46.4604 0.121222 46.0965 0 45.8538 0H6.91438C6.18648 0 5.70138 0.484887 5.70138 1.21206V4.96961H1.213C0.485104 4.96961 0 5.4545 0 6.18167V78.7879C0 79.5153 0.485265 80 1.213 80H60.168C60.8959 80 61.381 79.5151 61.381 78.7879V75.0304H65.8694C66.5973 75.0304 67.0824 74.5455 67.0824 73.8183V57.4547L70.4789 52.8486L70.6002 52.4849L79.6983 23.5151C80.6688 20.8486 79.2132 18.0606 76.5444 17.2122ZM47.0668 4.12122L62.958 19.3941H47.0668V4.12122ZM58.955 77.5759H2.426V7.39389H5.70122V73.8183C5.70122 74.5457 6.18648 75.0304 6.91422 75.0304H58.9548V77.5759H58.955ZM64.7777 72.6063H64.6564H8.12738V2.42428H44.6407V20.6061C44.6407 21.3334 45.1259 21.8182 45.8537 21.8182H64.7775V30.9092L59.0762 48.8486V49.2122L59.3188 64.6063C59.3188 65.0912 59.6827 65.576 60.168 65.6971C60.6533 65.8183 61.2597 65.6971 61.5023 65.2122L64.7775 60.8486V72.6063H64.7777ZM61.6236 60.8486L61.381 50.7879L67.4463 52.7273L61.6236 60.8486ZM77.5149 22.7879L68.7808 50.5457L61.745 48.2426L70.4791 20.6061C70.9643 19.2728 72.42 18.4243 73.7543 18.9092L75.6952 19.5153C77.151 19.8788 78 21.4547 77.5149 22.7879Z" fill="#36A9E1"/>
<path d="M16.213 21.7878H33.6812C34.4091 21.7878 34.8942 21.3029 34.8942 20.5757V8.21206C34.8942 7.48473 34.409 7 33.6812 7H16.213C15.4851 7 15 7.48489 15 8.21206V20.5757C15 21.1818 15.6066 21.7878 16.213 21.7878ZM17.4262 9.42412H32.4682V19.3635H17.4262V9.42412Z" fill="#36A9E1"/>
<path d="M14.213 33.4241H51.0902C51.8181 33.4241 52.3032 32.9392 52.3032 32.2121C52.3032 31.4847 51.818 31 51.0902 31H14.213C13.4851 31 13 31.4849 13 32.2121C12.9998 32.9392 13.4851 33.4241 14.213 33.4241Z" fill="#36A9E1"/>
<path d="M14.213 42.4241H51.0902C51.8181 42.4241 52.3032 41.9392 52.3032 41.2121C52.3032 40.4849 51.818 40 51.0902 40H14.213C13.4851 40 13 40.4849 13 41.2121C13 41.9392 13.4851 42.4241 14.213 42.4241Z" fill="#36A9E1"/>
<path d="M14.213 51.4241H51.0902C51.8181 51.4241 52.3032 50.9392 52.3032 50.2121C52.3032 49.4849 51.818 49 51.0902 49H14.213C13.4851 49 13 49.4849 13 50.2121C13 50.9392 13.4851 51.4241 14.213 51.4241Z" fill="#36A9E1"/>
<path d="M52.1819 58.2121C52.1819 57.4847 51.6967 57 50.9689 57H14.213C13.4851 57 13 57.4849 13 58.2121C13 58.9392 13.4853 59.4241 14.213 59.4241H51.0902C51.6967 59.4241 52.1819 58.818 52.1819 58.2121Z" fill="#36A9E1"/>
<path d="M55.5303 66H37.213C36.4851 66 36 66.4849 36 67.2121C36 67.9392 36.4853 68.4241 37.213 68.4241H55.409C56.1369 68.4241 56.622 67.9392 56.622 67.2121C56.622 66.4849 56.1369 66 55.5303 66Z" fill="#36A9E1"/>
</svg>
