<svg width="23" height="24" viewBox="0 0 23 24" fill="none" xmlns="http://www.w3.org/2000/svg">
<path d="M23 3.36269C23 2.22273 21.7676 1.37431 19.2321 0.768774C17.1563 0.273021 14.4103 0 11.5001 0C8.58989 0 5.84384 0.273021 3.76802 0.768774C1.23253 1.37431 0 2.22273 0 3.36269C0 3.78449 0.169277 4.1663 0.510354 4.51076L8.33712 13.5797V22.26C8.33712 22.5444 8.49092 22.8084 8.7438 22.9583C8.88223 23.0403 9.03946 23.0817 9.19727 23.0817C9.32778 23.0817 9.45853 23.0534 9.57929 22.9963L14.1753 20.8201C14.4678 20.6816 14.653 20.3969 14.6535 20.085L14.6623 13.5803L22.4901 4.51021C22.831 4.16586 23 3.78438 23 3.36269ZM4.573 2.27521C6.46842 1.86776 8.92844 1.64338 11.5001 1.64338C14.0717 1.64338 16.5318 1.86776 18.427 2.27521C20.52 2.72517 21.1084 3.20876 21.2491 3.36269C21.1082 3.51662 20.52 4.00021 18.427 4.45017C16.5318 4.85762 14.0716 5.08199 11.5001 5.08199C8.92856 5.08199 6.46842 4.85762 4.573 4.45028C2.48009 4.00032 1.89164 3.51673 1.75092 3.3628C1.89164 3.20876 2.48009 2.72517 4.573 2.27521ZM13.139 12.7621C13.0123 12.909 12.9428 13.0933 12.9426 13.2837L12.934 19.5738L10.0575 20.9358V13.2848C10.0575 13.094 9.98815 12.9092 9.86107 12.7621L4.04155 6.01894C6.08227 6.47493 8.71524 6.72549 11.5001 6.72549C14.285 6.72549 16.9178 6.47493 18.9586 6.01894L13.139 12.7621Z" fill="#36A9E1"/>
</svg>
