<svg width="17" height="22" viewBox="0 0 17 22" fill="none" xmlns="http://www.w3.org/2000/svg">
<path d="M15.7218 12.7076L15.7077 12.5152C15.4825 9.58239 14.1169 7.74386 12.9122 6.12219C11.7966 4.62056 10.8332 3.32381 10.8332 1.41045C10.8332 1.25681 10.7471 1.11638 10.6107 1.04593C10.4738 0.975104 10.3094 0.986704 10.185 1.07716C8.37568 2.37191 6.86606 4.55415 6.33872 6.63632C5.97263 8.08594 5.92419 9.7156 5.91739 10.7919C4.24652 10.435 3.86802 7.93549 3.86403 7.90829C3.84521 7.77866 3.766 7.66581 3.65077 7.60419C3.53435 7.54339 3.39749 7.53897 3.27945 7.5974C3.19184 7.6398 1.12883 8.68811 1.0088 12.8741C1.00038 13.0133 1 13.1526 1 13.2922C1 17.3585 4.30852 20.6671 8.37488 20.6671C12.4412 20.6671 15.7498 17.3585 15.7498 13.2922C15.7498 13.0881 15.7358 12.8977 15.7218 12.7076ZM8.37488 19.8476C7.01928 19.8476 5.91659 18.6729 5.91659 17.2289C5.91659 17.1797 5.9162 17.1301 5.91977 17.0693C5.93617 16.4603 6.05183 16.0446 6.17866 15.7681C6.41635 16.2787 6.84163 16.748 7.53145 16.748C7.75792 16.748 7.94118 16.5647 7.94118 16.3382C7.94118 15.7549 7.9532 15.0819 8.09844 14.4745C8.22769 13.9356 8.53655 13.363 8.92788 12.9037C9.10192 13.4998 9.44124 13.9823 9.77253 14.4533C10.2467 15.1271 10.7368 15.8237 10.8228 17.0116C10.828 17.082 10.8332 17.1529 10.8332 17.2289C10.8332 18.6729 9.73047 19.8476 8.37488 19.8476ZM10.9642 19.3123C11.3895 18.7323 11.6526 18.0154 11.6526 17.2289C11.6526 17.1325 11.6466 17.0428 11.6346 16.8752C11.5374 15.5376 10.956 14.711 10.4427 13.9816C10.0054 13.3606 9.62807 12.8241 9.62807 12.0631C9.62807 11.9074 9.54003 11.7654 9.40079 11.6962C9.26236 11.6265 9.09512 11.6422 8.97147 11.7362C8.18567 12.33 7.53026 13.3294 7.30141 14.2837C7.18457 14.7731 7.14377 15.3024 7.12937 15.7377C6.84528 15.432 6.75724 14.8655 6.75648 14.8579C6.73808 14.7262 6.65726 14.6114 6.53922 14.5502C6.42199 14.4894 6.28157 14.4878 6.16353 14.5486C6.06028 14.6014 5.15325 15.1216 5.10124 17.0349C5.09763 17.0997 5.09724 17.1645 5.09724 17.2289C5.09724 18.0155 5.36036 18.7324 5.78564 19.3123C3.45549 18.3062 1.81953 15.9874 1.81953 13.2923C1.81953 13.1694 1.81915 13.047 1.82752 12.9105C1.89793 10.4546 2.68378 9.23669 3.19671 8.69936C3.5544 9.97971 4.49147 11.6534 6.32639 11.6534C6.55286 11.6534 6.73612 11.4701 6.73612 11.2437C6.73612 9.87247 6.76692 8.28802 7.13344 6.83721C7.54954 5.19353 8.68946 3.41865 10.0655 2.21712C10.2939 3.97203 11.2498 5.25879 12.2545 6.61074C13.4488 8.21838 14.6836 9.88084 14.8904 12.5728L14.9044 12.7689C14.9172 12.9393 14.9305 13.1094 14.9305 13.2922C14.9303 15.9874 13.2944 18.3061 10.9642 19.3123Z" fill="#F21B3F" stroke="#F21B3F"/>
</svg>
