<svg width="96" height="96" viewBox="0 0 96 96" fill="none" xmlns="http://www.w3.org/2000/svg">
<path d="M78.5861 91.8563C78.2409 91.5111 77.7637 91.3125 77.2739 91.3125C76.7858 91.3125 76.307 91.5111 75.9618 91.8563C75.6167 92.2015 75.418 92.6804 75.418 93.1685C75.418 93.6566 75.6166 94.1354 75.9618 94.4806C76.307 94.8259 76.7858 95.0244 77.2739 95.0244C77.762 95.0244 78.2409 94.8259 78.5861 94.4806C78.9331 94.1354 79.1299 93.6566 79.1299 93.1685C79.1299 92.6804 78.9331 92.2015 78.5861 91.8563Z" fill="white"/>
<path d="M93.7178 31.1526C92.5977 29.5181 90.9062 28.4286 88.9548 28.0845C85.7958 27.5276 82.7073 29.1111 81.2441 31.8232V12.2396C81.2441 8.27158 78.0157 5.04353 74.0479 5.04353C72.75 5.04353 71.5327 5.39059 70.4802 5.99415C69.9061 2.59665 66.9446 0 63.3862 0C59.8278 0 56.8665 2.59665 56.2924 5.99415C55.2399 5.39059 54.0226 5.04353 52.7247 5.04353C48.9945 5.04353 45.9186 7.89686 45.5636 11.5354C44.5266 10.9556 43.3333 10.6236 42.0632 10.6236C38.0952 10.6236 34.8672 13.8519 34.8672 17.8197C34.8672 18.8447 35.6983 19.6756 36.7231 19.6756C37.748 19.6756 38.5791 18.8447 38.5791 17.8197C38.5791 15.8984 40.1422 14.3355 42.0632 14.3355C43.8624 14.3355 45.3473 15.7065 45.5287 17.4587V22.4066C45.5287 23.4317 46.3598 24.2626 47.3846 24.2626C48.4095 24.2626 49.2406 23.4317 49.2406 22.4066V12.2398C49.2406 10.3185 50.8036 8.75561 52.7247 8.75561C54.5239 8.75561 56.0088 10.1266 56.1901 11.8788V26.3179C56.1901 26.4031 56.2091 27.02 56.2091 27.02C56.2091 28.045 57.0402 28.8759 58.065 28.8759C59.0899 28.8759 59.921 28.045 59.921 27.02V12.2396C59.921 12.0735 59.9132 11.909 59.902 11.7457V7.19606C59.902 5.27478 61.4651 3.71189 63.3862 3.71189C65.3073 3.71189 66.8704 5.27497 66.8704 7.19606V11.7457C66.8592 11.909 66.8514 12.0735 66.8514 12.2396V38.3403C66.8514 39.3654 67.6825 40.1963 68.7074 40.1963C69.7322 40.1963 70.5633 39.3654 70.5633 38.3403L70.5823 11.8784C70.7636 10.1262 72.2485 8.75524 74.0479 8.75524C75.9692 8.75524 77.532 10.3183 77.532 12.2394V39.6931C77.532 41.0506 78.5103 42.1541 79.8579 42.3169C81.2044 42.4804 82.4182 41.6409 82.7417 40.3223L84.1862 34.4293C84.6366 32.5928 86.4461 31.411 88.3101 31.7398C89.2711 31.9093 90.104 32.4458 90.6558 33.2508C91.2074 34.0557 91.4073 35.0263 91.2183 35.9838L88.4222 50.1638C87.4836 54.9236 85.1717 59.25 81.7367 62.6755L75.9634 68.4324C75.6141 68.7806 75.4179 69.2535 75.4179 69.7466V86.3015C75.4179 87.3265 76.249 88.1574 77.2739 88.1574C78.2987 88.1574 79.1298 87.3265 79.1298 86.3015V70.517L84.3578 65.3041C88.3175 61.3555 90.9823 56.3684 92.0643 50.8821L94.8605 36.7021C95.2437 34.758 94.8378 32.7871 93.7178 31.1526Z" fill="white"/>
<path d="M55.0313 57.3487C54.0065 57.3487 53.1754 58.1796 53.1754 59.2047V64.6478C53.1754 70.7518 50.7949 76.4872 46.4725 80.7975L42.9556 84.3043C42.6063 84.6525 42.4102 85.1254 42.4102 85.6185V93.1685C42.4102 94.1935 43.2412 95.0244 44.2661 95.0244C45.291 95.0244 46.122 94.1935 46.122 93.1685V86.3889L49.0934 83.4261C54.1195 78.4144 56.8875 71.7455 56.8875 64.648V59.2047C56.8873 58.1796 56.0564 57.3487 55.0313 57.3487Z" fill="white"/>
<path d="M56.3478 51.3039C56.0026 50.9587 55.5237 50.7601 55.0356 50.7601C54.5475 50.7601 54.0687 50.9587 53.7237 51.3039C53.3785 51.6491 53.1797 52.128 53.1797 52.6161C53.1797 53.1042 53.3783 53.583 53.7237 53.9282C54.0687 54.2734 54.5475 54.472 55.0356 54.472C55.5237 54.472 56.0026 54.2734 56.3478 53.9282C56.693 53.583 56.8916 53.1042 56.8916 52.6161C56.8916 52.128 56.6932 51.6491 56.3478 51.3039Z" fill="white"/>
<path d="M50.0004 29.7887C48.841 29.7887 47.7484 30.0779 46.7889 30.5858C46.3761 27.1789 43.4686 24.5297 39.9519 24.5297C38.7636 24.5297 37.6446 24.8322 36.6678 25.3643C36.0576 22.1858 33.2575 19.7762 29.9036 19.7762C26.5498 19.7762 23.7495 22.1858 23.1395 25.3643C22.1627 24.8322 21.0435 24.5297 19.8552 24.5297C16.0566 24.5297 12.9663 27.62 12.9663 31.4188V49.4777C11.4977 47.096 8.67348 45.7387 5.78711 46.2472C3.91947 46.5765 2.30053 47.6195 1.22835 49.1839C0.156169 50.7483 -0.232095 52.6345 0.13464 54.4951L2.77008 67.8595C3.79401 73.0514 6.31568 77.7705 10.0628 81.5071L14.9586 86.3889V93.1685C14.9586 94.1936 15.7897 95.0245 16.8146 95.0245C17.8394 95.0245 18.6705 94.1936 18.6705 93.1685V85.6185C18.6705 85.1254 18.4742 84.6525 18.1251 84.3043L12.684 78.8785C9.46132 75.6649 7.29247 71.6063 6.41201 67.1413L3.77656 53.7768C3.60433 52.9028 3.78677 52.0168 4.29029 51.282C4.79399 50.5473 5.55456 50.0573 6.43168 49.9027C8.13173 49.6028 9.785 50.6813 10.1961 52.3578L11.5576 57.9119C11.8752 59.2077 13.0652 60.033 14.3918 59.8723C15.7166 59.7123 16.678 58.6277 16.678 57.2935V31.4186C16.678 29.6668 18.1034 28.2414 19.8552 28.2414C21.4944 28.2414 22.8473 29.4895 23.0144 31.0855V44.6868C23.0144 45.7118 23.8455 46.5427 24.8703 46.5427C24.8733 46.5427 24.8763 46.5423 24.8792 46.5423C24.8822 46.5423 24.8852 46.5427 24.8881 46.5427C25.913 46.5427 26.7441 45.7118 26.7441 44.6868V31.4184C26.7441 31.2607 26.7368 31.1046 26.7263 30.9494V26.665C26.7263 24.9131 28.1516 23.4878 29.9035 23.4878C31.6553 23.4878 33.0807 24.9129 33.0807 26.665V30.9494C33.0701 31.1046 33.0628 31.2607 33.0628 31.4184V44.6868C33.0628 45.7118 33.8939 46.5427 34.9188 46.5427C34.9217 46.5427 34.9247 46.5423 34.9277 46.5423C34.9307 46.5423 34.9336 46.5427 34.9366 46.5427C35.9614 46.5427 36.7925 45.7118 36.7925 44.6868V31.0855C36.9596 29.4895 38.3124 28.2414 39.9517 28.2414C41.7036 28.2414 43.1289 29.6666 43.1289 31.4186L43.1113 44.6869C43.1113 45.712 43.9424 46.5429 44.9672 46.5429C44.9702 46.5429 44.9732 46.5425 44.9761 46.5425C44.9791 46.5425 44.9821 46.5429 44.9851 46.5429C46.0099 46.5429 46.841 45.712 46.841 44.6869V36.3446C47.008 34.7487 48.361 33.5006 50.0004 33.5006C51.7522 33.5006 53.1776 34.9258 53.1776 36.6778V45.3471C53.1776 46.3721 54.0087 47.203 55.0335 47.203C56.0584 47.203 56.8895 46.3721 56.8895 45.3471V36.6778C56.8895 32.8792 53.7991 29.7887 50.0004 29.7887Z" fill="white"/>
<path d="M27.6185 10.3345L17.8325 0.548443C17.1077 -0.176304 15.9329 -0.176304 15.2076 0.548443C14.4829 1.27319 14.4829 2.44837 15.2076 3.17312L24.9938 12.9592C25.3563 13.3216 25.8312 13.5028 26.3062 13.5028C26.7811 13.5028 27.2561 13.3214 27.6185 12.9592C28.3433 12.2344 28.3433 11.0592 27.6185 10.3345Z" fill="white"/>
<path d="M21.0528 15.308H16.5239C15.4991 15.308 14.668 16.1389 14.668 17.164C14.668 18.189 15.4991 19.0199 16.5239 19.0199H21.0528C22.0776 19.0199 22.9087 18.189 22.9087 17.164C22.9087 16.1389 22.0776 15.308 21.0528 15.308Z" fill="white"/>
<path d="M31.7388 0C30.7139 0 29.8828 0.830907 29.8828 1.85595V6.53627C29.8828 7.56131 30.7137 8.39222 31.7388 8.39222C32.7636 8.39222 33.5947 7.56131 33.5947 6.53627V1.85595C33.5947 0.830907 32.7636 0 31.7388 0Z" fill="white"/>
</svg>
