<svg width="597" height="571" viewBox="0 0 597 571" fill="none" xmlns="http://www.w3.org/2000/svg">
<g filter="url(#filter0_d)">
<path d="M546.448 340.067L296.572 485.281L197.802 428.253L149.952 400.632L88.6025 365.212L78.1734 359.183L50.5695 343.25L300.445 198.036L546.448 340.067Z" fill="#EAEAEA"/>
</g>
<path d="M546.448 333.067L296.572 478.281L197.802 421.253L149.952 393.632L88.6025 358.212L78.1734 352.183L50.5695 336.25L300.445 191.036L546.448 333.067Z" fill="#EAEAEA"/>
<path d="M546.448 333.067L546.431 340.098L296.555 485.311L296.572 478.281L546.448 333.067Z" fill="#DCDCDC"/>
<path d="M78.1733 352.183L78.1475 359.213L50.5435 343.281L50.5694 336.25L78.1733 352.183Z" fill="#B8B8B8"/>
<path d="M88.6024 358.213L88.5766 365.243L78.1475 359.213L78.1733 352.183L88.6024 358.213Z" fill="#B8B8B8"/>
<path d="M149.952 393.632L149.926 400.662L88.5766 365.243L88.6024 358.213L149.952 393.632Z" fill="#B8B8B8"/>
<path d="M197.802 421.253L197.776 428.283L149.926 400.662L149.952 393.632L197.802 421.253Z" fill="#B8B8B8"/>
<path d="M296.572 478.281L296.555 485.311L197.776 428.283L197.802 421.253L296.572 478.281Z" fill="#B8B8B8"/>
<path d="M371.068 166.176L377.15 162.647L422.049 188.569L415.968 192.106L371.068 166.176Z" fill="#EAEAEA"/>
<path d="M371.284 90.2303L377.365 86.7021L377.15 162.647L371.068 166.176L371.284 90.2303Z" fill="#DCDCDC"/>
<path d="M419.642 194.219L425.715 190.691L470.778 216.699L464.697 220.236L419.642 194.219Z" fill="#EAEAEA"/>
<path d="M419.858 118.274L425.931 114.746L425.715 190.691L419.642 194.219L419.858 118.274Z" fill="#DCDCDC"/>
<path d="M295.52 3.53674L540.893 145.214L540.375 336.449L441.846 279.593L394.117 252.032L332.923 216.665L322.52 210.626L301.946 198.429L295.52 3.53674ZM464.697 220.236L464.913 144.325L419.858 118.309L419.642 194.219L464.697 220.236ZM415.968 192.106L416.183 116.195L371.327 90.3165L371.111 166.227L415.968 192.158" fill="#B8B8B8"/>
<path d="M295.52 3.53675L301.601 0L547 141.677L540.918 145.214L295.52 3.53675Z" fill="#EAEAEA"/>
<path d="M540.919 145.214L547 141.677L546.457 333.085L540.375 336.613L540.919 145.214Z" fill="#DCDCDC"/>
<path d="M155.758 282.69L149.676 279.153L149.297 146.249L155.378 149.786L155.758 282.69Z" fill="#B8B8B8"/>
<path d="M301.463 6.98724L302.007 198.248L155.758 282.69L155.378 149.786L94.1836 185.119L94.5631 318.014L56.625 339.925L56.0815 148.656L301.463 6.98724Z" fill="#DCDCDC"/>
<path d="M56.6249 339.925L50.5435 336.388L50 145.128L56.0815 148.656L56.6249 339.925Z" fill="#B8B8B8"/>
<path d="M56.0815 148.656L50 145.128L295.39 3.4505L301.463 6.98725L56.0815 148.656Z" fill="#EAEAEA"/>
<defs>
<filter id="filter0_d" x="0.569458" y="183.036" width="595.878" height="387.245" filterUnits="userSpaceOnUse" color-interpolation-filters="sRGB">
<feFlood flood-opacity="0" result="BackgroundImageFix"/>
<feColorMatrix in="SourceAlpha" type="matrix" values="0 0 0 0 0 0 0 0 0 0 0 0 0 0 0 0 0 0 127 0"/>
<feOffset dy="35"/>
<feGaussianBlur stdDeviation="25"/>
<feColorMatrix type="matrix" values="0 0 0 0 0.125276 0 0 0 0 0.15868 0 0 0 0 0.174945 0 0 0 0.25 0"/>
<feBlend mode="normal" in2="BackgroundImageFix" result="effect1_dropShadow"/>
<feBlend mode="normal" in="SourceGraphic" in2="effect1_dropShadow" result="shape"/>
</filter>
</defs>
</svg>
