<svg width="47" height="50" viewBox="0 0 47 50" fill="none" xmlns="http://www.w3.org/2000/svg">
<path fill-rule="evenodd" clip-rule="evenodd" d="M12.5 18V1.5H32.5L45.5 14L46.5 46.5L43.5 49H14.5L11.5 46.5L11.8889 36H2V18H12.5Z" fill="white"/>
<path d="M46.7319 13.531L34.0249 0.294727C33.844 0.106445 33.5944 0 33.3338 0H14.3949C12.2754 0 10.551 1.72793 10.551 3.85176V17.3077H2.87585C1.29009 17.3077 0 18.6006 0 20.1898V34.618C0 36.2071 1.29009 37.5 2.87585 37.5H10.551V46.155C10.551 48.2751 12.2754 50 14.3949 50H43.1561C45.2756 50 47 48.2761 47 46.1571V14.1978C47 13.9491 46.9039 13.7102 46.7319 13.531ZM33.5715 2.5958L44.0028 13.4615H33.5715V2.5958ZM2.87585 35.577C2.34785 35.577 1.91843 35.1468 1.91843 34.618V20.1898C1.91843 19.661 2.34794 19.2308 2.87585 19.2308H28.7773C29.3053 19.2308 29.7347 19.661 29.7347 20.1898V34.618C29.7347 35.1468 29.3052 35.577 28.7773 35.577H2.87585ZM45.0816 46.1571C45.0816 47.2157 44.2178 48.077 43.156 48.077H14.3949C13.3332 48.077 12.4694 47.2148 12.4694 46.1551V37.5H28.7773C30.363 37.5 31.6531 36.2071 31.6531 34.618V20.1898C31.6531 18.6006 30.363 17.3077 28.7773 17.3077H12.4694V3.85176C12.4694 2.78818 13.3332 1.92305 14.3949 1.92305H31.653V14.423C31.653 14.9541 32.0825 15.3846 32.6122 15.3846H45.0816V46.1571Z" fill="#36A9E1"/>
<path d="M8.63086 32H6.87305V23.4688H8.63086V32Z" fill="#36A9E1"/>
<path d="M12.0625 23.4688L14.2539 29.6562L16.4336 23.4688H18.7422V32H16.9785V29.668L17.1543 25.6426L14.8516 32H13.6445L11.3477 25.6484L11.5234 29.668V32H9.76562V23.4688H12.0625Z" fill="#36A9E1"/>
<path d="M26.5273 30.9219C26.2109 31.3008 25.7637 31.5957 25.1855 31.8066C24.6074 32.0137 23.9668 32.1172 23.2637 32.1172C22.5254 32.1172 21.877 31.957 21.3184 31.6367C20.7637 31.3125 20.334 30.8438 20.0293 30.2305C19.7285 29.6172 19.5742 28.8965 19.5664 28.0684V27.4883C19.5664 26.6367 19.709 25.9004 19.9941 25.2793C20.2832 24.6543 20.6973 24.1777 21.2363 23.8496C21.7793 23.5176 22.4141 23.3516 23.1406 23.3516C24.1523 23.3516 24.9434 23.5938 25.5137 24.0781C26.084 24.5586 26.4219 25.2598 26.5273 26.1816H24.8164C24.7383 25.6934 24.5645 25.3359 24.2949 25.1094C24.0293 24.8828 23.6621 24.7695 23.1934 24.7695C22.5957 24.7695 22.1406 24.9941 21.8281 25.4434C21.5156 25.8926 21.3574 26.5605 21.3535 27.4473V27.9922C21.3535 28.8867 21.5234 29.5625 21.8633 30.0195C22.2031 30.4766 22.7012 30.7051 23.3574 30.7051C24.0176 30.7051 24.4883 30.5645 24.7695 30.2832V28.8125H23.1699V27.5176H26.5273V30.9219Z" fill="#36A9E1"/>
</svg>
