<svg width="71" height="47" viewBox="0 0 71 47" fill="none" xmlns="http://www.w3.org/2000/svg">
<path fill-rule="evenodd" clip-rule="evenodd" d="M25.5503 21.3685C23.7664 18.8941 23.071 15.7996 23.5849 12.5553C24.0586 9.56363 25.4933 6.8478 27.5309 4.71341C29.3144 7.18769 30.0095 10.2818 29.4958 13.5258C29.022 16.5178 27.5878 19.234 25.5503 21.3685ZM24.9533 21.9611C22.2489 24.5047 18.6428 26.0811 14.8465 26.0811C11.2617 26.0811 8.07742 24.6687 5.88851 22.0998C3.68307 19.5226 2.78272 16.1319 3.34854 12.5553C4.46365 5.51359 10.9024 0 17.9978 0C21.5826 0 24.7669 1.41247 26.9558 3.98135C26.9776 4.00691 26.9993 4.03255 27.0209 4.05826C25.357 5.77447 24.0651 7.8545 23.3156 10.1522C23.1293 9.34647 22.77 8.6164 22.2476 8.004C21.2522 6.8352 19.7448 6.19504 17.9978 6.19504C14.004 6.19504 10.097 9.55276 9.46511 13.5258C9.1884 15.2811 9.58901 16.9001 10.5967 18.0813C11.5921 19.2459 13.0995 19.8902 14.8465 19.8902C18.0134 19.8902 21.1257 17.779 22.5938 14.9238C22.6507 17.5106 23.4583 19.9335 24.9533 21.9611Z" fill="#36A9E1"/>
<path fill-rule="evenodd" clip-rule="evenodd" d="M47.1941 3.98135C45.0052 1.41247 41.8209 0 38.236 0C31.1406 0 24.7019 5.51359 23.5868 12.5553C23.021 16.1278 23.9213 19.5185 26.1268 22.0998C28.3157 24.6687 31.5 26.0811 35.0848 26.0811C42.1843 26.0811 48.6189 20.5676 49.734 13.5259C50.2999 9.95337 49.3995 6.56262 47.1941 3.98135ZM43.6175 12.5553C42.9856 16.5284 39.0786 19.8861 35.0848 19.8861C33.3419 19.8861 31.8345 19.2459 30.835 18.0813C29.8273 16.9001 29.4267 15.2811 29.7034 13.5259C30.3353 9.55276 34.2423 6.19505 38.236 6.19505C39.983 6.19505 41.4905 6.8352 42.4858 7.99987C43.4936 9.18106 43.8942 10.8 43.6175 12.5553Z" fill="#FF6B00"/>
<path d="M11.6629 46.1739C8.07808 46.1739 4.89383 44.7614 2.70491 42.1925C0.499476 39.6154 -0.400871 36.2246 0.164943 32.648C0.433395 30.9588 2.01933 29.8024 3.70851 30.075C5.39769 30.3435 6.54997 31.9294 6.28152 33.6186C6.00481 35.3738 6.40542 36.9928 7.41315 38.1699C8.40848 39.3345 9.91594 39.9788 11.6629 39.9788C15.6567 39.9788 19.5637 36.6211 20.1956 32.648C20.4888 30.7895 20.0676 29.0838 19.0061 27.8365C18.0232 26.6884 16.6231 26.0813 14.9505 26.0813C13.2406 26.0813 11.8529 24.6936 11.8529 22.9838C11.8529 21.2739 13.2406 19.8862 14.9505 19.8862C18.4403 19.8862 21.5502 21.2822 23.7144 23.8139C25.9405 26.4199 26.8862 29.9924 26.3122 33.6186C25.1971 40.6603 18.7625 46.1739 11.6629 46.1739Z" fill="#36A9E1"/>
<path d="M35.5707 35.2717C35.5707 35.2923 35.5665 35.3047 35.5624 35.313C35.5583 35.3171 35.5542 35.3336 35.5542 35.3543C35.9548 35.5154 36.2397 35.7756 36.4049 36.1349C36.5743 36.4942 36.6569 36.8783 36.6569 37.2871C36.6569 37.9975 36.5288 38.5964 36.2686 39.092C36.0126 39.5876 35.6739 39.9882 35.2609 40.2938C34.8479 40.5994 34.3771 40.8225 33.8526 40.9629C33.3281 41.1033 32.7912 41.1735 32.2419 41.1735H28.8594L31.0318 29.9646H34.3647C35.3435 29.9646 36.0704 30.1794 36.5536 30.6089C37.0368 31.0384 37.2764 31.6703 37.2764 32.5087C37.2764 33.153 37.1401 33.7188 36.8716 34.2103C36.6114 34.6894 36.1737 35.0445 35.5707 35.2717ZM32.0684 36.3827L31.5522 39.0259H32.7581C33.0142 39.0259 33.2455 38.9763 33.4437 38.8731C33.642 38.7698 33.8072 38.6377 33.9352 38.4725C34.0632 38.3073 34.1623 38.1214 34.2243 37.9149C34.2904 37.7125 34.3193 37.5143 34.3193 37.3202C34.3193 37.0311 34.2367 36.8039 34.0715 36.6346C33.9063 36.4694 33.6626 36.3868 33.3405 36.3868H32.0684V36.3827ZM32.9192 32.0833L32.469 34.3548H33.6626C33.865 34.3548 34.055 34.3135 34.2243 34.2351C34.3977 34.1525 34.5423 34.0451 34.6662 33.9046C34.7901 33.7642 34.8851 33.6073 34.947 33.4297C35.0131 33.2521 35.042 33.0745 35.042 32.8887C35.042 32.6078 34.9594 32.4055 34.8025 32.2774C34.6414 32.1494 34.3854 32.0833 34.0302 32.0833H32.9192Z" fill="#36A9E1"/>
<path d="M43.7778 40.3547C43.1005 40.9494 42.2249 41.2509 41.1511 41.2509C40.6472 41.2509 40.1764 41.1683 39.7428 41.0114C39.3091 40.8503 38.9457 40.6149 38.6566 40.3093C38.3675 40.0036 38.161 39.6319 38.0371 39.19C37.9132 38.7481 37.9049 38.2566 38.0123 37.7073L39.5115 29.9594H41.816L40.3168 37.6082C40.2301 38.0584 40.2921 38.4053 40.5027 38.649C40.7133 38.8927 40.99 39.0124 41.3328 39.0124C41.688 39.0124 42.0019 38.9092 42.2745 38.7068C42.5471 38.5044 42.7288 38.1823 42.8155 37.7404L44.3312 29.9594H46.6523L45.1201 37.8354C44.9012 38.9216 44.4551 39.76 43.7778 40.3547Z" fill="#36A9E1"/>
<path d="M46.2578 41.1683L48.4302 29.9594H50.7348L48.5624 41.1683H46.2578Z" fill="#36A9E1"/>
<path d="M50.5234 41.1683L52.6958 29.9594H55.0004L53.2616 38.9794H57.3999L56.9828 41.1683H50.5234Z" fill="#36A9E1"/>
<path d="M63.9928 29.9593C64.7031 29.9593 65.3102 30.0998 65.8224 30.3765C66.3345 30.6573 66.6484 31.1157 66.764 31.76C66.8383 32.1359 66.8507 32.6025 66.797 33.1518C66.7434 33.7053 66.6566 34.3206 66.541 34.998C66.3593 36.0305 66.1941 36.8813 66.0495 37.5586C65.905 38.2359 65.7067 38.7935 65.463 39.2354C65.2483 39.6112 65.0046 39.921 64.7403 40.1688C64.4718 40.4166 64.1786 40.6107 63.8606 40.7552C63.5426 40.8998 63.2122 41.003 62.8611 41.0691C62.5142 41.1352 62.1549 41.1641 61.7914 41.1641H58.2148L60.3872 29.9552H63.9928V29.9593ZM64.3438 34.1967C64.4099 33.8746 64.4471 33.5855 64.4553 33.3253C64.4677 33.0692 64.4305 32.8504 64.3521 32.6728C64.2736 32.4952 64.1414 32.363 63.9638 32.268C63.7863 32.1772 63.5467 32.1317 63.2452 32.1317H62.2788L60.9407 39.0082H61.9236C62.5142 39.0082 62.9355 38.8595 63.1874 38.5581C63.4393 38.2566 63.621 37.8436 63.7284 37.319L64.3438 34.1967Z" fill="#36A9E1"/>
<path d="M64.0131 9.49907H54.927C54.3571 9.49907 53.8945 9.0365 53.8945 8.46656C53.8945 7.89661 54.3571 7.43405 54.927 7.43405H64.0131C64.583 7.43405 65.0456 7.89661 65.0456 8.46656C65.0456 9.0365 64.583 9.49907 64.0131 9.49907Z" fill="#FF6B00"/>
<path d="M68.9701 13.9884H59.8841C59.3141 13.9884 58.8516 13.5259 58.8516 12.9559C58.8516 12.386 59.3141 11.9234 59.8841 11.9234H68.9701C69.5401 11.9234 70.0026 12.386 70.0026 12.9559C70.0026 13.5259 69.5401 13.9884 68.9701 13.9884Z" fill="#FF6B00"/>
<path d="M64.0131 18.4819H54.927C54.3571 18.4819 53.8945 18.0194 53.8945 17.4494C53.8945 16.8795 54.3571 16.4169 54.927 16.4169H64.0131C64.583 16.4169 65.0456 16.8795 65.0456 17.4494C65.0456 18.0194 64.583 18.4819 64.0131 18.4819Z" fill="#FF6B00"/>
</svg>
