<svg width="70" height="56" viewBox="0 0 70 56" fill="none" xmlns="http://www.w3.org/2000/svg">
<path fill-rule="evenodd" clip-rule="evenodd" d="M61.6474 21.3322C61.0779 22.3525 59.6542 23.183 58.4915 23.183H37.9423C36.7796 23.183 36.2813 22.3525 36.8746 21.3322L44.3491 8.16271C44.9186 7.14237 46.3661 6.31186 47.5288 6.31186H67.9118C69.0746 6.31186 69.5729 7.14237 69.0034 8.16271L61.6474 21.3322Z" fill="#FF6B00"/>
<path fill-rule="evenodd" clip-rule="evenodd" d="M44.0881 27.8339C44.0881 36.8271 36.7796 44.1356 27.7864 44.1356C18.7932 44.1356 11.4847 36.8271 11.4847 27.8339C11.4847 18.8407 18.7932 11.5322 27.7864 11.5322C30.7525 11.5322 33.5051 12.3152 35.9017 13.7152L37.5152 10.8915C34.6441 9.23049 31.322 8.28134 27.7864 8.28134C17.0135 8.28134 8.23389 17.061 8.23389 27.8339C8.23389 38.6068 17.0135 47.3864 27.7864 47.3864C38.5593 47.3864 47.339 38.6068 47.339 27.8339C47.339 27.8102 47.339 27.7864 47.339 27.7627H44.0881C44.0881 27.7864 44.0881 27.8102 44.0881 27.8339Z" fill="#00A8E1"/>
<path fill-rule="evenodd" clip-rule="evenodd" d="M37.3729 27.9051C37.3729 33.1492 33.1017 37.3966 27.8814 37.3966C22.6373 37.3966 18.3898 33.1492 18.3898 27.9051C18.3898 22.661 22.6373 18.4136 27.8814 18.4136C29.5661 18.4136 31.1559 18.8644 32.5322 19.6237L33.7661 17.4407C32.0339 16.4441 30.0169 15.8983 27.8814 15.8983C21.261 15.8983 15.8746 21.2848 15.8746 27.9051C15.8746 34.5254 21.261 39.9119 27.8814 39.9119C34.5017 39.9119 39.8881 34.5254 39.8881 27.9051C39.8881 27.8576 39.8881 27.8102 39.8881 27.7627H37.3729C37.3729 27.8102 37.3729 27.8576 37.3729 27.9051Z" fill="#00A8E1"/>
<path fill-rule="evenodd" clip-rule="evenodd" d="M51.6102 27.7627C51.6102 27.7864 51.6102 27.8102 51.6102 27.8339C51.6102 40.9559 40.9322 51.6339 27.8102 51.6339C14.6881 51.6339 4.01017 40.9559 4.01017 27.8339C4.01017 14.7119 14.6881 4.0339 27.8102 4.0339C32.1288 4.0339 36.1627 5.19661 39.6508 7.18983L41.6441 3.70169C37.5627 1.35254 32.8407 0 27.8102 0C12.4814 0 0 12.4814 0 27.8102C0 43.139 12.4814 55.6203 27.8102 55.6203C43.139 55.6203 55.6203 43.139 55.6203 27.8102C55.6203 27.7864 55.6203 27.7627 55.6203 27.739H51.6102V27.7627Z" fill="#00A8E1"/>
<path fill-rule="evenodd" clip-rule="evenodd" d="M31.3695 27.7864C31.3695 29.7085 29.8034 31.2746 27.8813 31.2746C25.9593 31.2746 24.3932 29.7085 24.3932 27.7864C24.3932 25.8644 25.9593 24.2983 27.8813 24.2983C28.4983 24.2983 29.0915 24.4644 29.6136 24.7491L30.4915 23.2305C29.7322 22.8034 28.8542 22.5424 27.9051 22.5424C25.0102 22.5424 22.661 24.8915 22.661 27.7864C22.661 30.6813 25.0102 33.0305 27.9051 33.0305C30.8 33.0305 33.1491 30.6813 33.1491 27.7864C33.1491 27.7864 33.1491 27.7864 33.1491 27.7627L31.3695 27.7864C31.3695 27.7864 31.3695 27.7627 31.3695 27.7864Z" fill="#00A8E1"/>
<path fill-rule="evenodd" clip-rule="evenodd" d="M49 17.9152H45.3695L44.278 20.0746H42L47.6949 9.58643H49.8305L51.4441 20.0746H49.2373L49 17.9152ZM46.2474 16.1593H48.7627L48.5966 14.5695L48.3118 12.1254H48.2407L47.1254 14.4034L46.2474 16.1593Z" fill="white"/>
<path fill-rule="evenodd" clip-rule="evenodd" d="M59.7729 18.8644C59.4644 19.1254 59.156 19.339 58.8475 19.5288C58.539 19.6949 58.2068 19.8373 57.8983 19.9322C57.5899 20.0271 57.2577 20.0983 56.9492 20.122C56.6407 20.1458 56.356 20.1695 56.0712 20.1695C55.5966 20.1695 55.1695 20.0983 54.7661 19.9559C54.3627 19.8135 54.0068 19.6 53.6983 19.339C53.3899 19.0542 53.1526 18.722 52.9627 18.3424C52.7729 17.9627 52.7017 17.5119 52.7017 17.0373C52.7017 16.8949 52.7017 16.7763 52.7255 16.6339C52.7255 16.4915 52.7492 16.3729 52.7966 16.2305L53.461 12.861C53.5797 12.2915 53.7695 11.7932 54.0305 11.3661C54.2916 10.939 54.6238 10.6068 55.0271 10.322C55.4068 10.0373 55.8577 9.82372 56.3085 9.70508C56.7831 9.5627 57.2577 9.49152 57.7797 9.49152C58.0882 9.49152 58.3966 9.51524 58.7051 9.5627C59.0136 9.61016 59.3221 9.65762 59.6305 9.75253C59.9153 9.84745 60.2 9.94236 60.461 10.0847C60.7221 10.2271 60.9356 10.3695 61.1017 10.5356L59.8916 12.1491C59.6305 11.8644 59.2983 11.6746 58.9424 11.5797C58.5627 11.4847 58.2068 11.4136 57.8509 11.4136C57.5899 11.4136 57.3526 11.4373 57.0916 11.5085C56.8543 11.5797 56.617 11.6746 56.3797 11.8407C56.1661 11.983 55.9763 12.1966 55.8102 12.4339C55.6441 12.6712 55.5254 12.9797 55.4543 13.3119L54.8848 16.1593C54.8373 16.3491 54.8136 16.539 54.8136 16.7288C54.8136 17.2508 54.9797 17.6542 55.2882 17.8915C55.5966 18.1288 55.9763 18.2712 56.4271 18.2712C56.6407 18.2712 56.8543 18.2474 57.1153 18.1763C57.3763 18.1288 57.6373 17.9864 57.8983 17.7966L58.2543 16.0881H56.7119L57.0678 14.2373H60.6271L59.7729 18.8644Z" fill="white"/>
</svg>
