<svg width="47" height="50" viewBox="0 0 47 50" fill="none" xmlns="http://www.w3.org/2000/svg">
<path fill-rule="evenodd" clip-rule="evenodd" d="M12.5 18V1.5H32.5L45.5 14L46.5 46.5L43.5 49H14.5L11.5 46.5L11.8889 36H2V18H12.5Z" fill="white"/>
<path d="M46.7319 13.531L34.0249 0.294727C33.844 0.106445 33.5944 0 33.3338 0H14.3949C12.2754 0 10.551 1.72793 10.551 3.85176V17.3077H2.87585C1.29009 17.3077 0 18.6006 0 20.1898V34.618C0 36.2071 1.29009 37.5 2.87585 37.5H10.551V46.155C10.551 48.2751 12.2754 50 14.3949 50H43.1561C45.2756 50 47 48.2761 47 46.1571V14.1978C47 13.9491 46.9039 13.7102 46.7319 13.531ZM33.5715 2.5958L44.0028 13.4615H33.5715V2.5958ZM2.87585 35.577C2.34785 35.577 1.91843 35.1468 1.91843 34.618V20.1898C1.91843 19.661 2.34794 19.2308 2.87585 19.2308H28.7773C29.3053 19.2308 29.7347 19.661 29.7347 20.1898V34.618C29.7347 35.1468 29.3052 35.577 28.7773 35.577H2.87585ZM45.0816 46.1571C45.0816 47.2157 44.2178 48.077 43.156 48.077H14.3949C13.3332 48.077 12.4694 47.2148 12.4694 46.1551V37.5H28.7773C30.363 37.5 31.6531 36.2071 31.6531 34.618V20.1898C31.6531 18.6006 30.363 17.3077 28.7773 17.3077H12.4694V3.85176C12.4694 2.78818 13.3332 1.92305 14.3949 1.92305H31.653V14.423C31.653 14.9541 32.0825 15.3846 32.6122 15.3846H45.0816V46.1571Z" fill="#36A9E1"/>
<path d="M11.4671 24.4037C11.1487 23.9887 10.7534 23.7192 10.2813 23.5952C9.97404 23.5126 9.31462 23.4713 8.30295 23.4713H5.63333V31.7308H7.29692V28.6152H8.38166C9.13479 28.6152 9.70994 28.5757 10.1071 28.4968C10.3994 28.4329 10.6869 28.3025 10.9698 28.1052C11.2527 27.908 11.4859 27.6366 11.6696 27.2911C11.8532 26.9456 11.945 26.5193 11.945 26.0122C11.9449 25.3549 11.7856 24.8188 11.4671 24.4037ZM10.0424 26.6771C9.91695 26.8612 9.74365 26.9963 9.52251 27.0827C9.30137 27.1692 8.86309 27.2123 8.20738 27.2123H7.29692V24.8686H8.10061C8.70012 24.8686 9.09914 24.8873 9.29767 24.9249C9.56742 24.9738 9.79041 25.0958 9.96644 25.2911C10.1426 25.4864 10.2306 25.7344 10.2306 26.0348C10.2307 26.2789 10.1679 26.493 10.0424 26.6771Z" fill="#36A9E1"/>
<path d="M19.9424 25.7278C19.7626 25.2 19.5002 24.754 19.1556 24.3897C18.8109 24.0253 18.3968 23.7718 17.9135 23.629C17.5538 23.5239 17.0311 23.4713 16.3455 23.4713H13.3049V31.7308H16.4354C17.0499 31.7308 17.5407 31.6726 17.9079 31.5561C18.3987 31.3984 18.7884 31.1786 19.0769 30.8969C19.459 30.525 19.7531 30.0387 19.9593 29.4377C20.1279 28.9456 20.2122 28.3597 20.2122 27.6799C20.2122 26.9062 20.1222 26.2555 19.9424 25.7278ZM18.3237 29.1195C18.2113 29.4895 18.0662 29.7552 17.8882 29.9166C17.7102 30.0782 17.4863 30.1927 17.2166 30.2603C17.0105 30.3129 16.6751 30.3392 16.2106 30.3392H14.9685V24.8686H15.716C16.3941 24.8686 16.8494 24.8948 17.0817 24.9475C17.3926 25.0151 17.6493 25.1447 17.8516 25.3363C18.054 25.5279 18.2113 25.7945 18.3237 26.1363C18.4361 26.4781 18.4924 26.9682 18.4924 27.6068C18.4924 28.2452 18.4361 28.7494 18.3237 29.1195Z" fill="#36A9E1"/>
<path d="M27.2824 24.8686V23.4713H21.6341V31.7308H23.2977V28.2208H26.7373V26.8236H23.2977V24.8686H27.2824Z" fill="#36A9E1"/>
</svg>
