<svg width="47" height="50" viewBox="0 0 47 50" fill="none" xmlns="http://www.w3.org/2000/svg">
<path fill-rule="evenodd" clip-rule="evenodd" d="M12.5 18.5V1.5H32.5L45.5 14L46.5 46.5L43.5 49H14.5L11.5 46.5L11.8704 36.5H7L1.5 35.5L2 18.5H12.5Z" fill="white"/>
<path d="M46.7319 13.531L34.0249 0.294727C33.844 0.106445 33.5944 0 33.3338 0H14.3949C12.2754 0 10.551 1.72793 10.551 3.85176V17.3077H2.87585C1.29009 17.3077 0 18.6006 0 20.1898V34.618C0 36.2071 1.29009 37.5 2.87585 37.5H10.551V46.155C10.551 48.2751 12.2754 50 14.3949 50H43.1561C45.2756 50 47 48.2761 47 46.1571V14.1978C47 13.9491 46.9039 13.7102 46.7319 13.531ZM33.5715 2.5958L44.0028 13.4615H33.5715V2.5958ZM2.87585 35.577C2.34785 35.577 1.91843 35.1468 1.91843 34.618V20.1898C1.91843 19.661 2.34794 19.2308 2.87585 19.2308H28.7773C29.3053 19.2308 29.7347 19.661 29.7347 20.1898V34.618C29.7347 35.1468 29.3052 35.577 28.7773 35.577H2.87585ZM45.0816 46.1571C45.0816 47.2157 44.2178 48.077 43.156 48.077H14.3949C13.3332 48.077 12.4694 47.2148 12.4694 46.1551V37.5H28.7773C30.363 37.5 31.6531 36.2071 31.6531 34.618V20.1898C31.6531 18.6006 30.363 17.3077 28.7773 17.3077H12.4694V3.85176C12.4694 2.78818 13.3332 1.92305 14.3949 1.92305H31.653V14.423C31.653 14.9541 32.0825 15.3846 32.6122 15.3846H45.0816V46.1571Z" fill="#36A9E1"/>
<path d="M10.508 24.4039C10.1895 23.9887 9.79421 23.7193 9.32212 23.5952C9.01487 23.5125 8.35545 23.4714 7.34378 23.4714H4.67416V31.7308H6.33775V28.6152H7.42249C8.17562 28.6152 8.75077 28.5757 9.14784 28.4969C9.4401 28.433 9.72767 28.3024 10.0106 28.1053C10.2935 27.9083 10.5267 27.6368 10.7103 27.2912C10.8939 26.9458 10.9857 26.5193 10.9857 26.0123C10.9856 25.3551 10.8264 24.8188 10.508 24.4039ZM9.08326 26.6772C8.95778 26.8611 8.78448 26.9964 8.56334 27.0828C8.3423 27.169 7.90393 27.2123 7.24821 27.2123H6.33775V24.8685H7.14144C7.74095 24.8685 8.13997 24.8873 8.3386 24.9248C8.60835 24.9738 8.83134 25.0957 9.00737 25.2911C9.1835 25.4863 9.27156 25.7343 9.27156 26.0348C9.27147 26.279 9.20873 26.493 9.08326 26.6772Z" fill="#36A9E1"/>
<path d="M17.3589 23.4714V28.9871L13.9868 23.4714H12.3683V31.7308H13.9138V26.3448L17.2353 31.7308H18.9045V23.4714H17.3589Z" fill="#36A9E1"/>
<path d="M24.4966 27.3023V28.6939H26.4019V29.742C26.1508 29.9373 25.8501 30.1033 25.4998 30.2406C25.1495 30.3776 24.8 30.4461 24.4516 30.4461C23.7472 30.4461 23.1777 30.2012 22.7431 29.711C22.3084 29.2208 22.0912 28.4855 22.0912 27.5052C22.0912 26.5963 22.3057 25.9107 22.7347 25.4487C23.1637 24.9867 23.7417 24.7556 24.4685 24.7556C24.9481 24.7556 25.348 24.8732 25.6684 25.1078C25.9887 25.3426 26.207 25.6628 26.3232 26.0684L27.9755 25.7585C27.8107 24.9999 27.4407 24.4054 26.8656 23.9753C26.2904 23.5453 25.4914 23.3303 24.4685 23.3303C23.6817 23.3303 23.0241 23.4673 22.4958 23.7417C21.8027 24.0984 21.2763 24.6111 20.9166 25.2796C20.5569 25.9482 20.377 26.7125 20.377 27.5726C20.377 28.3652 20.5381 29.0986 20.8603 29.7726C21.1826 30.4469 21.664 30.9652 22.3047 31.3277C22.9454 31.6902 23.6967 31.8714 24.5584 31.8714C25.2366 31.8714 25.9063 31.7428 26.5677 31.4854C27.2289 31.2282 27.7338 30.9306 28.0823 30.5926V27.3022H24.4966V27.3023Z" fill="#36A9E1"/>
</svg>
