<svg width="28" height="29" viewBox="0 0 28 29" fill="none" xmlns="http://www.w3.org/2000/svg">
<path d="M27.1462 1.69622H21.5507V0.853945C21.5507 0.382425 21.1683 0 20.6968 0C20.2253 0 19.8428 0.382425 19.8428 0.853945V1.69622H14.8539V0.853945C14.8539 0.382425 14.4715 0 14 0C13.5285 0 13.1461 0.382425 13.1461 0.853945V1.69622H8.36923V0.853945C8.36923 0.382425 7.98681 0 7.51529 0C7.04377 0 6.66134 0.382425 6.66134 0.853945V1.69622H0.853945C0.382425 1.69622 0 2.07864 0 2.55016V21.8453C0 22.3169 0.382425 22.6993 0.853945 22.6993H6.09517C6.93503 26.2878 10.1592 28.9691 14 28.9691C17.8408 28.9691 21.065 26.2877 21.9048 22.6993H27.1461C27.6176 22.6993 28 22.3169 28 21.8453V2.55016C28.0001 2.07864 27.6179 1.69622 27.1462 1.69622ZM6.66134 3.40411V4.17579C6.66134 4.64731 7.04377 5.02974 7.51529 5.02974C7.98681 5.02974 8.36923 4.64731 8.36923 4.17579V3.40411H13.1461V4.17579C13.1461 4.64731 13.5285 5.02974 14 5.02974C14.4715 5.02974 14.8539 4.64731 14.8539 4.17579V3.40411H19.8428V4.17579C19.8428 4.64731 20.2253 5.02974 20.6968 5.02974C21.1683 5.02974 21.5507 4.64731 21.5507 4.17579V3.40411H26.2923V6.89617H1.70789V3.40411H6.66134ZM14 27.2612C10.4644 27.2612 7.58787 24.3847 7.58787 20.8491C7.58787 17.3134 10.4644 14.4369 14 14.4369C17.5356 14.4369 20.4121 17.3133 20.4121 20.8491C20.4121 24.3848 17.5358 27.2612 14 27.2612ZM22.1165 20.9914C22.1173 20.9439 22.12 20.8967 22.12 20.8491C22.12 16.3717 18.4774 12.729 14 12.729C9.52263 12.729 5.87998 16.3717 5.87998 20.8491C5.87998 20.8967 5.88283 20.9439 5.88354 20.9914H1.70775V8.60421H26.2921V20.9914H22.1165Z" fill="#36A9E1"/>
<path d="M14.8544 21.0645V16.9334C14.8544 16.4619 14.4719 16.0795 14.0004 16.0795C13.5289 16.0795 13.1465 16.4619 13.1465 16.9334V21.4184C13.1465 21.6448 13.2364 21.862 13.3965 22.0222L15.3592 23.985C15.526 24.1517 15.7445 24.2351 15.9631 24.2351C16.1815 24.2351 16.4002 24.1517 16.567 23.985C16.9004 23.6516 16.9004 23.1109 16.567 22.7774L14.8544 21.0645Z" fill="#36A9E1"/>
</svg>
