<svg width="25" height="25" viewBox="0 0 25 25" fill="none" xmlns="http://www.w3.org/2000/svg">
<path d="M20.6636 4.22701C18.5827 2.146 15.8159 1 12.873 1C9.93003 1 7.1632 2.146 5.0822 4.22701C3.00119 6.30801 1.85523 9.07475 1.85523 12.0177C1.85523 13.8819 2.32714 15.7138 3.22288 17.3365L0.890625 24L7.55402 21.6678C9.17678 22.5634 11.0087 23.0354 12.8729 23.0354C15.8158 23.0354 18.5827 21.8893 20.6636 19.8084C22.7446 17.7274 23.8906 14.9606 23.8906 12.0177C23.8906 9.07471 22.7446 6.30797 20.6636 4.22701ZM12.873 21.6863C11.1436 21.6863 9.44622 21.2238 7.96447 20.3487L7.69454 20.1893L3.08964 21.8009L4.70135 17.1961L4.54192 16.9262C3.66689 15.4444 3.20437 13.7471 3.20437 12.0177C3.20437 6.68644 7.54171 2.34914 12.873 2.34914C18.2042 2.34914 22.5415 6.68648 22.5415 12.0177C22.5415 17.349 18.2042 21.6863 12.873 21.6863Z" fill="#36A9E1" stroke="#36A9E1" stroke-width="0.3"/>
<path d="M18.7944 14.6796L17.2045 13.0897C16.6785 12.5637 15.8226 12.5637 15.2966 13.0897L14.6884 13.6979C13.2115 12.8967 11.9917 11.6769 11.1905 10.2L11.7987 9.59183C12.0535 9.33703 12.1938 8.99823 12.1938 8.63787C12.1938 8.2775 12.0535 7.9387 11.7987 7.68391L10.2088 6.09399C9.95396 5.83919 9.61516 5.69885 9.2548 5.69885C8.89439 5.69885 8.55564 5.83919 8.30084 6.09399L7.02892 7.3659C6.31107 8.08376 6.27729 9.32284 6.93382 10.8547C7.50738 12.193 8.55752 13.6643 9.8908 14.9975C11.2241 16.3308 12.6954 17.381 14.0336 17.9545C14.7638 18.2674 15.4272 18.4235 15.9995 18.4235C16.6281 18.4235 17.1468 18.2352 17.5224 17.8594L18.7944 16.5875C19.0492 16.3327 19.1895 15.9939 19.1895 15.6336C19.1895 15.2732 19.0492 14.9344 18.7944 14.6796ZM16.5686 16.9056C16.2846 17.1895 15.4982 17.1145 14.5651 16.7146C13.3809 16.207 12.0596 15.2585 10.8448 14.0436C9.62994 12.8288 8.68142 11.5076 8.17384 10.3233C7.7739 9.39017 7.69898 8.60377 7.98284 8.31982L9.2548 7.0479L10.8447 8.63782L9.55461 9.92793L9.7581 10.3575C10.7474 12.4459 12.4423 14.1409 14.5308 15.1302L14.9604 15.3337L16.2505 14.0436L17.8404 15.6335L16.5686 16.9056Z" fill="#36A9E1" stroke="#36A9E1" stroke-width="0.3"/>
</svg>
